<?xml version="1.0" encoding="utf-8"?>
<!-- Generator: Adobe Illustrator 20.0.0, SVG Export Plug-In . SVG Version: 6.00 Build 0)  -->
<svg version="1.1" id="Layer_1" xmlns="http://www.w3.org/2000/svg" xmlns:xlink="http://www.w3.org/1999/xlink" x="0px" y="0px"
	 viewBox="0 0 87.1 46.8" enable-background="new 0 0 87.1 46.8" xml:space="preserve">
<g>
	<path fill="#FFFFFF" d="M82.9,46.8c-1.6,0-3-0.9-3.7-2.3c-1.6,1-4.3,2.3-7,2.3c-4.1,0-8-1.7-10.8-4.6c-2.8-3-4.3-6.9-4-11
		c0.5-8.4,7.9-14.2,14.8-14c3.3,0,6.6,1.1,9.2,3.2l5.6-3.3v25.6C87.1,45,85.2,46.8,82.9,46.8z M72.2,25.6c-3.5,0-6.4,2.9-6.4,6.4
		s2.9,6.4,6.4,6.4c3.5,0,6.4-2.9,6.4-6.4S75.8,25.6,72.2,25.6z"/>
	<path fill="#FFFFFF" d="M49.2,46.8c-2.3,0-4.1-1.8-4.1-4.1V21.3c0-2.3,1.8-4.1,4.1-4.1s4.1,1.8,4.1,4.1v21.5
		C53.3,45,51.5,46.8,49.2,46.8z"/>
	<circle fill="#FFBE00" cx="49.2" cy="6.4" r="6.4"/>
	<path fill="#FFFFFF" d="M20.7,33.9l-7.2,12.9c0,0-13-23.7-13-23.7c-1-2.1-0.2-4.6,1.9-5.6c2.4-1.1,4.5,0.1,5.4,1.8l5.7,10l7.2-12.3
		l7.2,12.3l5.7-10c0.9-1.8,3-2.9,5.4-1.8c2,1,2.9,3.5,1.9,5.6c0,0-13,23.7-13,23.7L20.7,33.9z"/>
</g>
</svg>
