<?xml version="1.0" encoding="utf-8"?>
<!-- Generator: Adobe Illustrator 18.1.1, SVG Export Plug-In . SVG Version: 6.00 Build 0)  -->
<svg version="1.1" id="Layer_1" xmlns="http://www.w3.org/2000/svg" xmlns:xlink="http://www.w3.org/1999/xlink" x="0px" y="0px"
	 viewBox="0 0 566.9 299.7" style="enable-background:new 0 0 566.9 299.7;" xml:space="preserve">
<g>
	<circle style="fill:#F6EC13;" cx="298.4" cy="42" r="42"/>
	<path style="fill:#3E414F;" d="M298.4,105.2c-20.1,0-36.5,16.3-36.5,36.5l0.1,123.2l0,0c0.8,19.4,16.8,34.9,36.4,34.9
		c20.1,0,36.5-16.3,36.5-36.5V141.6C334.8,121.5,318.5,105.2,298.4,105.2z"/>
	<path style="fill:#3E414F;" d="M525.1,136.9c-17.8-19.5-43.4-31.7-71.9-31.7c-53.7,0-97.3,43.5-97.3,97.3
		c0,53.7,43.5,97.3,97.3,97.3c17.9,0,34.6-4.9,49-13.3c6.7,8.1,16.8,13.3,28.1,13.3c20.1,0,36.5-16.3,36.5-36.5V105.2
		C566.9,105.2,544.9,121.8,525.1,136.9z M453.3,244.4c-23.2,0-42-18.8-42-42s18.8-42,42-42c23.2,0,42,18.8,42,42
		S476.5,244.4,453.3,244.4z"/>
	<path style="fill:#3E414F;" d="M224.1,111.7c-5.4-3.1-11.6-4.7-17.7-4.7c-13,0-25.1,7-31.5,18.4l-19,32.5l-34.6-52.7l-34.6,52.7
		l-19-32.5C61.2,114.1,49.1,107,36.1,107c-6.2,0-12.3,1.6-17.7,4.7C1,121.5-5.1,143.6,4.7,160.9L83,299.7l38.2-67.7l0,0v0l38.2,67.7
		l78.4-138.7C247.6,143.6,241.5,121.5,224.1,111.7z"/>
</g>
</svg>
