<?xml version="1.0" encoding="utf-8"?>
<!-- Generator: Adobe Illustrator 18.1.1, SVG Export Plug-In . SVG Version: 6.00 Build 0)  -->
<svg version="1.1" id="Layer_1" xmlns="http://www.w3.org/2000/svg" xmlns:xlink="http://www.w3.org/1999/xlink" x="0px" y="0px"
	 viewBox="0 0 960 560" enable-background="new 0 0 960 560" xml:space="preserve">
<g>
	<circle fill="#F6EC13" cx="505.3" cy="97.4" r="71.1"/>
	<path fill="#FFFFFF" d="M505.3,204.4c-34,0-61.8,27.6-61.8,61.8l0.2,208.6l0,0c1.4,32.9,28.4,59.1,61.6,59.1
		c34,0,61.8-27.6,61.8-61.8V266C567,232,539.4,204.4,505.3,204.4z"/>
	<path fill="#FFFFFF" d="M889.2,258.1c-30.1-33-73.5-53.7-121.8-53.7c-90.9,0-164.8,73.7-164.8,164.8c0,90.9,73.7,164.8,164.8,164.8
		c30.3,0,58.6-8.3,83-22.5c11.3,13.7,28.4,22.5,47.6,22.5c34,0,61.8-27.6,61.8-61.8V204.4C960,204.4,922.7,232.5,889.2,258.1z
		 M767.6,440.1c-39.3,0-71.1-31.8-71.1-71.1s31.8-71.1,71.1-71.1c39.3,0,71.1,31.8,71.1,71.1S806.9,440.1,767.6,440.1z"/>
	<path fill="#FFFFFF" d="M379.5,215.4c-9.1-5.2-19.6-8-30-8c-22,0-42.5,11.9-53.3,31.2l-32.2,55l-58.6-89.2l-58.6,89.2l-32.2-55
		c-11-19.1-31.5-31.2-53.5-31.2c-10.5,0-20.8,2.7-30,8C1.7,232-8.6,269.4,8,298.7l132.6,235l64.7-114.6l0,0l0,0l64.7,114.6
		l132.8-234.9C419.3,269.4,409,232,379.5,215.4z"/>
</g>
</svg>
